<svg xmlns="http://www.w3.org/2000/svg" version="1.1" xmlns:xlink="http://www.w3.org/1999/xlink" xmlns:svgjs="http://svgjs.dev/svgjs" width="100%" height="100%" viewBox="0 0 1000 600"><rect width="1000" height="600" x="0" y="0" fill="#ffe8f5"/><g><rect width="333.3333333333333" height="333.3333333333333" rx="13.333333333333334" ry="13.333333333333334" y="222.9557890781685" fill="ORANGE" transform="matrix(0.6227160114314684,0,0,0.6227160114314685,0,57.375865954134525)" x="200.73350524902344"/><path d="M328.8631696449756 337.2536088985096L328.8631696449756 337.2536088985096Q328.8631696449756 335.7285987412383 326.75865562794115 334.3865898028395Q324.68464181405216 333.07508106758615 322.2751257655635 331.0925678631334Q319.83510951392935 329.14055486182616 317.7610957000403 326.39553657873773Q315.6870818861513 323.65051829564936 315.6870818861513 319.25848904270794L315.6870818861513 319.25848904270794Q315.6870818861513 317.2759758382552 316.3275861522053 316.3914699470378Q316.9985906214047 315.50696405582045 317.88309651262205 315.0799612117845Q318.737102200694 314.6224581646031 319.62160809191136 314.6224581646031Q320.5061139831287 314.6224581646031 321.1771184523281 314.6224581646031L321.1771184523281 314.6224581646031Q324.68464181405216 314.6224581646031 328.7411688323939 315.6289648684022Q332.79769585073564 316.6049713690558 336.4272200250414 318.2519823389089Q340.0567441993471 319.89899330876193 343.0152639044535 321.8815065132146Q345.97378360955986 323.86401971766736 347.28529234481323 325.84653292212005L347.28529234481323 325.84653292212005Q352.348326066954 322.766012404432 359.6988750250018 321.54600427861493Q367.04942398304956 320.3564963559433 373.88146948762517 320.3564963559433L373.88146948762517 320.3564963559433Q383.09253083754396 320.3564963559433 391.32758568680913 322.97951382645Q399.56264053607424 325.60253129695667 405.9371829934684 331.33656948829685L405.9371829934684 331.33656948829685Q413.1657311389345 337.92461336770896 416.1547510471863 347.56267756166375Q419.1132707522927 357.231241958764 419.1132707522927 366.4728035118282L419.1132707522927 366.4728035118282Q419.1132707522927 376.3548693309464 413.6232341861159 383.2479152418128Q408.1331976199391 390.17146135582465 399.898142770674 394.563490608766Q391.6630879214088 398.95551986170744 382.2080249463266 401.0600338787419Q372.7834621743898 403.1340476926309 364.8534093565789 403.1340476926309L364.8534093565789 403.1340476926309Q357.62486121111283 403.1340476926309 356.0693508506961 401.2735353007599Q354.5443406934247 399.4130229088889 354.5443406934247 398.07101397049007L354.5443406934247 398.07101397049007Q354.5443406934247 396.54600381321876 357.83836263313077 395.1124942653837Q361.1323845728368 393.67898471754864 365.95141666981425 391.9404731382594Q370.80094896993705 390.17146135582465 376.62648777071354 387.88394611991765Q382.4215263683446 385.5659306808652 387.2710586684674 382.27190874115917Q392.09009076544476 378.97788680145305 395.38411270515087 374.5858575485117Q398.67813464485687 370.19382829557026 398.67813464485687 364.0327872601941L398.67813464485687 364.0327872601941Q398.67813464485687 360.0982610544341 396.9396230655676 355.03522733229323Q395.17061128313287 350.00269381329787 391.6630879214088 345.48866374777475Q388.15556455968476 340.97463368225164 382.9705300249623 337.80261255512727Q377.81599569338516 334.6305914280029 371.22795181397305 334.6305914280029L371.22795181397305 334.6305914280029Q365.5244138257783 334.6305914280029 360.0343772596015 336.15560158527427Q354.5443406934247 337.6806117425456 349.054304127248 341.218635307415L349.054304127248 341.218635307415Q349.054304127248 350.64319807935186 349.2678055492659 362.62977791550446Q349.4813069712839 374.5858575485117 349.4813069712839 385.7794321028832L349.4813069712839 385.7794321028832Q349.4813069712839 396.97300665725476 348.9323033146662 407.7395783675903Q348.3832996580486 418.50615007792584 347.7427953919946 428.38821589704406L347.7427953919946 428.38821589704406Q347.5292939699766 432.99374657200343 346.30928584415955 439.2462882168159Q345.0892777183425 445.5293300647738 343.0152639044535 451.1108672403868Q340.9412500905645 456.7229046191453 338.4097332294941 460.65743082490536Q335.8782163684237 464.62245723381074 333.0111972727536 464.62245723381074L333.0111972727536 464.62245723381074Q332.58419442871764 464.62245723381074 331.60818792806396 464.1954543897748Q330.6016812242649 463.7379513425934 329.5036739110295 462.76194484193974Q328.40566659779415 461.7554381381407 327.4296600971405 460.23042798086937Q326.42315339334147 458.705417823598 326.20965197132347 456.7229046191453L326.20965197132347 456.7229046191453Q327.09415786254084 452.7578782102399 328.1921651757762 444.3093219389567Q329.2901724890115 435.86076566767355 329.5036739110295 426.86320573977275L329.5036739110295 426.86320573977275Q329.7171753330475 418.50615007792584 329.83917614562927 408.19708141477173Q329.9611769582109 397.85751254847213 329.83917614562927 386.3284357595009Q329.7171753330475 374.7993589705297 329.5036739110295 362.2942756809048Q329.2901724890115 349.7586921881345 328.8631696449756 337.2536088985096Z " fill="#ffe8f5" transform="matrix(0.6227160114314684,0,0,0.6227160114314685,0,57.375865954134525)"/><path d="M630.9874286657262 399.9470114939716L630.9874286657262 332.58612348993523Q628.7811640917962 332.3906316922452 626.1839159224864 331.07804390775533Q623.5587403535066 329.76545612326544 621.4362579785866 327.9781025443855Q619.3417030033368 326.1628215658356 618.1408248175269 324.0403391909157Q616.9120192320469 321.9457842156658 617.7219138224768 319.71159224206593L617.7219138224768 319.71159224206593Q618.3363166152168 318.11973046087604 622.0506607713266 318.622423654936Q625.7650049274364 319.12511684899596 630.9874286657262 319.32060864668597L630.9874286657262 319.32060864668597Q637.0197469944458 319.5161004443759 644.6718545040254 319.12511684899596Q652.323962013605 318.70620585394596 660.4508353175745 318.11973046087604Q668.6056360212141 317.5053276681361 676.7325093251836 316.61165087869614Q684.8873100288232 315.69004668958615 691.7295229479729 314.6846603014662L691.7295229479729 314.6846603014662Q693.1258929314728 314.4891685037762 695.3321575054026 314.9080794988262Q697.5663494790026 315.2990630942062 699.5771222552424 315.99724808595613Q701.5878950314823 316.6954330777061 703.0959746136623 317.70081946582604Q704.6040541958422 318.70620585394596 704.6040541958422 319.9350114394259L704.6040541958422 319.9350114394259Q704.6040541958422 321.13588962523585 703.5986678077222 322.9511706037858Q702.5932814196022 324.7385241826657 700.7780004410524 326.66551475989553Q698.9627194625025 328.56457793745545 696.3375438935226 330.1843671183154Q693.7402957242127 331.77622889950527 690.7241365598529 332.19513989455527L690.7241365598529 332.19513989455527Q685.5017128215632 333.00503448498523 680.7540548776635 333.5077276790452Q676.0343243334337 334.01042087310515 671.202884190524 334.20591267079516Q666.3993714472842 334.40140446848517 661.1490203093244 334.51311406716513Q655.9265965710348 334.5968962661751 649.6987864446251 334.5968962661751L649.6987864446251 334.5968962661751Q649.8942782423151 343.8408655569446 650.0897700400051 352.6938512523342Q650.3131892373651 361.5468369477237 649.8942782423151 368.5845416645633L649.8942782423151 368.5845416645633Q655.9265965710348 368.38904986687334 660.8697463126246 368.08184847050336Q665.7849686545443 367.7746470741334 670.420916999764 367.46744567776335Q675.0289379453138 367.18817168106335 679.7486684895434 366.7692606860134Q684.4963264334433 366.37827709063345 689.914241969423 365.76387429789344L689.914241969423 365.76387429789344Q691.115120155233 365.5683825002035 693.1258929314728 365.2611811038335Q695.1366657077126 364.9539797074635 697.2591480826326 364.8701975084535Q699.3537030578825 364.7584879097735 701.1689840364323 365.1773989048235Q702.9842650149823 365.5683825002035 703.3752486103622 366.9647524837034L703.3752486103622 366.9647524837034Q704.1851432007923 369.39443625499325 702.7887732172923 372.60608721704307Q701.3644758341223 375.81773817909294 698.8510098638225 378.75011514444276Q696.3375438935226 381.6545647101226 693.3213847291628 383.6653374863625Q690.3052255648029 385.6761102626024 688.294452788563 385.6761102626024L688.294452788563 385.6761102626024L649.8942782423151 385.6761102626024Q649.8942782423151 392.322831384062 649.5870768459451 400.3659224890216Q649.3078028492451 408.4090135939812 648.4979082588152 414.8323155180808L648.4979082588152 414.8323155180808Q647.6880136683852 421.87002023492045 645.7889504908253 428.01404816232014Q643.8619599135955 434.1301486900498 641.6556953396655 438.7660970352695Q639.4494307657357 443.3741179808193 637.2431661918058 446.11100314847914Q635.0089742182059 448.81996091646903 633.4171124370159 448.81996091646903L633.4171124370159 448.81996091646903Q631.992815053846 448.81996091646903 629.7865504799162 446.30649494616915Q627.5802859059863 443.7930289758693 627.5802859059863 440.9723616091994L627.5802859059863 440.9723616091994Q627.5802859059863 440.7768698115094 628.1946886987263 438.3471860402196Q628.7811640917962 435.9454296685997 628.9766558894862 434.54905968509973L628.9766558894862 434.54905968509973Q629.5910586822263 429.71761954219 629.9820422776062 425.8915657874002Q630.4009532726561 422.06551203261046 630.5964450703461 418.23945827782063Q630.7919368680361 414.44133192270084 630.903646466716 410.1125849738511Q630.9874286657262 405.78383802500133 630.9874286657262 399.9470114939716L630.9874286657262 399.9470114939716ZM780.203525102528 397.9362387177317L780.203525102528 389.3066722197022Q780.203525102528 385.0617074698624 779.0026469167182 380.76088792068265Q777.7738413312383 376.4321409718329 775.1765931619284 372.9132886134131Q772.5514175929485 369.39443625499325 768.3343802427788 367.18817168106335Q764.1173428926089 364.9539797074635 757.8895327661993 364.9539797074635L757.8895327661993 364.9539797074635Q752.8626008255995 364.9539797074635 748.1149428816999 365.76387429789344Q743.3952123374701 366.5737688883234 739.7925777800403 367.5791552764434L739.7925777800403 367.5791552764434Q725.7171683463611 371.20971723354313 724.0973791655011 366.5737688883234L724.0973791655011 366.5737688883234Q723.2874845750712 364.17201251670355 725.7171683463611 360.9324341549837Q728.1189247179809 357.7207831929339 733.0341470599006 354.9001158262641Q737.9772968014904 352.1073758592642 744.90329191965 350.0966030830243Q751.8572144374797 348.08583030678443 760.0957973401293 348.08583030678443L760.0957973401293 348.08583030678443Q768.3343802427788 348.08583030678443 775.2603753609384 350.87857027378425Q782.214297878768 353.6992376404541 787.2412298193677 358.64238738204386Q792.2681617599675 363.5576097239636 795.0888291266373 370.2043308454232Q797.8815690936372 376.82312456721286 797.8815690936372 384.47523207679245L797.8815690936372 384.47523207679245L797.8815690936372 428.2933221590201Q797.8815690936372 431.30948132337994 798.1049882909971 436.1409214662897Q798.3004800886871 440.9723616091994 799.3058664768071 444.79841536398925L799.3058664768071 444.79841536398925Q800.897728257997 450.8307336927089 799.6968500721871 452.03161187851885L799.6968500721871 452.03161187851885Q798.6914636840671 452.8415064689488 796.5969087088173 452.7297968702688Q794.4744263338973 452.6460146712588 792.4636535576575 451.83612008082883L792.4636535576575 451.83612008082883Q789.8384779886776 450.8307336927089 787.3250120183777 447.70286492966903Q784.8115460480778 444.60292356629924 783.0241924691979 439.3525724283395L783.0241924691979 439.3525724283395Q782.018806081078 440.58137801381946 779.5053401107781 442.4804411913793Q776.9918741404782 444.37950436893925 773.1658203856886 446.30649494616915Q769.3397666308987 448.205558123729 764.620036086669 449.62985550689893Q759.9003055424392 451.0262254903989 754.6499544044794 451.2217172880889L754.6499544044794 451.2217172880889Q744.2051069279 451.4172090857789 736.9719104133704 449.12716231283895Q729.7387138988408 446.8091881402291 725.2144751523011 442.7876425877493Q720.6902364057613 438.7660970352695 718.5677540308415 433.43196369829985Q716.4452716559216 428.0978303613301 716.2497798582316 422.2610038303004L716.2497798582316 422.2610038303004Q716.0542880605416 416.22868550158074 718.2605526344714 410.41978637022106Q720.4668172084013 404.58295983919135 725.2982573513111 400.1425032916616Q730.1296974942207 395.7299741438018 737.7818050038004 393.104798574822Q745.40598511371 390.5075504055121 756.0742517876494 390.70304220320213L756.0742517876494 390.70304220320213Q761.9110783186791 390.8985340008921 768.9487830355187 392.90930677713203Q775.9864877523584 394.92007955337186 780.203525102528 397.9362387177317L780.203525102528 397.9362387177317ZM780.399016900218 423.88079301116034L780.399016900218 408.79999718936114Q774.7576821668785 406.78922441312125 768.0271788464088 405.3928544296213Q761.2966755259391 403.9685570464514 754.4544626067895 404.1640488441414L754.4544626067895 404.1640488441414Q734.5422266420805 404.58295983919135 734.5422266420805 420.4736502514205L734.5422266420805 420.4736502514205Q734.5422266420805 428.2933221590201 739.4853763836703 430.918497728Q744.40059872559 433.5436732969798 754.2589708090995 433.5436732969798L754.2589708090995 433.5436732969798Q757.4706217711494 433.5436732969798 761.1849659272591 432.73377870654986Q764.927237483039 431.9238841161199 768.4460898414587 430.61129633162994Q771.9649421998786 429.29870854714005 775.0648835632484 427.51135496826015Q778.1927523262882 425.69607398971027 780.399016900218 423.88079301116034L780.399016900218 423.88079301116034ZM850.5805722709243 439.5759916256995L850.5805722709243 439.5759916256995Q847.7599049042545 431.9238841161199 844.3527621445147 423.1826080194104Q840.9176919851049 414.44133192270084 836.8961464326251 405.4766366286313Q832.8746008801453 396.5398687342318 828.3503621336055 387.5751734401623Q823.8261233870658 378.63840554576274 818.7991914464661 370.5953144408032L818.7991914464661 370.5953144408032Q817.4028214629661 368.38904986687334 814.9731376916762 365.68009209888345Q812.5713813200564 362.94320693122364 812.5713813200564 360.54145055960373L812.5713813200564 360.54145055960373Q812.5713813200564 357.7207831929339 817.793805058346 357.7207831929339L817.793805058346 357.7207831929339Q819.609086036896 357.7207831929339 821.9270602095058 358.22347638699387Q824.2450343821157 358.72616958105385 826.5350811550557 359.4243545728038Q828.8530553276655 360.15046696422377 830.6683363062155 361.1558533523437Q832.4836172847653 362.16123974046366 833.0700926778353 362.94320693122364L833.0700926778353 362.94320693122364Q836.0862518421951 366.7692606860134 839.716813799295 374.421368195593Q843.3473757563947 382.04554830550256 846.7545185161346 390.70304220320213Q850.1616612758743 399.36053610090164 852.9823286425442 407.6829012025612Q855.8029960092141 416.03319370389073 857.003874195024 421.0601256444905L857.003874195024 421.0601256444905Q858.6236633758839 416.22868550158074 860.1317429580638 411.704446755041Q861.6398225402437 407.1802080085012 863.5388857178036 401.56680067483154Q865.4658762950336 395.92546594149184 867.9793422653335 388.49677762927223Q870.4928082356332 381.04016191738265 874.0954427930631 370.5953144408032L874.0954427930631 370.5953144408032Q873.7044591976831 369.39443625499325 873.2855482026331 366.5737688883234Q872.8945646072531 363.75310152165355 872.8945646072531 360.73694235729374L872.8945646072531 360.73694235729374Q872.8945646072531 357.3297995975539 873.3972578013131 354.31364043319405Q873.8999509953732 351.29748126883425 875.519740176233 350.4875866784043L875.519740176233 350.4875866784043Q875.9107237716129 350.2920948807143 877.111601957423 350.2920948807143L877.111601957423 350.2920948807143Q880.7421639145227 350.2920948807143 883.4511216825125 353.1127622473841Q886.1600794505024 355.905502214384 887.9753604290523 359.4243545728038Q889.7906414076023 362.94320693122364 890.6843181970422 366.18278529294344Q891.6059223861521 369.39443625499325 891.6059223861521 370.2043308454232L891.6059223861521 370.2043308454232Q891.6059223861521 373.41598180747303 890.8798099947322 376.5159231708429Q890.1816250029822 379.6437919338827 889.1762386148622 382.2689675028626L889.1762386148622 382.2689675028626Q885.7690958551224 390.31205860782217 882.7529366907626 397.34976332466175Q879.7367775264028 404.3874680415014 876.720618362043 411.00626176329104Q873.7044591976831 417.65298288475066 870.5765904346432 424.3834862052203Q867.4766490712734 431.11398952568993 863.8460871141737 438.57060523757957L863.8460871141737 438.57060523757957Q861.6398225402437 442.7876425877493 859.0146469712639 445.6083099544192Q856.417398801954 448.40104992141903 852.9823286425442 448.40104992141903L852.9823286425442 448.40104992141903Q850.1616612758743 448.40104992141903 849.9661694781844 446.39027714517914L849.9661694781844 446.39027714517914Q849.7706776804944 445.9992935497991 849.9661694781844 443.9885207735593Q850.1616612758743 441.97774799731934 850.5805722709243 439.5759916256995ZM912.104633743931 420.4736502514205L912.104633743931 368.9755252599433Q912.104633743931 367.7746470741334 911.7974323475611 367.46744567776335Q911.4902309511912 367.18817168106335 911.0992473558111 366.9647524837034L911.0992473558111 366.9647524837034Q909.0884745795712 366.37827709063345 906.2678072129014 365.68009209888345Q903.4471398462314 364.9539797074635 902.0507698627315 364.36750431439356L902.0507698627315 364.36750431439356Q900.0399970864917 363.3621179262736 898.6436271029917 361.4351273490437Q897.2193297198219 359.5360641714838 897.2193297198219 357.5252913952439L897.2193297198219 357.5252913952439Q897.2193297198219 356.128921411744 899.4255942937517 355.01182542494405Q901.6597862673516 353.8947294381441 903.0561562508515 353.50374584276415L903.0561562508515 353.50374584276415Q908.0830881914513 351.8839566619042 912.300125541621 351.10198947114424Q916.5171628917908 350.2920948807143 921.3486030347005 350.4875866784043L921.3486030347005 350.4875866784043Q923.7782868059904 350.4875866784043 925.2863663881703 351.49297306652426Q926.7944459703502 352.4983594546442 927.4926309621002 353.8109472391341Q928.1908159538501 355.123535023624 928.4980173502202 356.408195408444Q928.8052187465901 357.7207831929339 928.8052187465901 358.53067778336384L928.8052187465901 358.53067778336384L928.8052187465901 420.2502310540605Q928.8052187465901 425.08167119697026 927.7998323584701 430.80678812931995Q926.7944459703502 436.5598324613396 925.2863663881703 441.4750548032594Q923.7782868059904 446.39027714517914 921.6558044310706 449.62985550689893Q919.5333220561507 452.8415064689488 917.5225492799108 452.8415064689488L917.5225492799108 452.8415064689488Q915.7351957010309 452.8415064689488 914.7298093129109 449.12716231283895Q913.7244229247909 445.38489075705917 913.110020132051 440.16246701876946Q912.495617339311 434.94004328047976 912.300125541621 429.52212774450004Q912.104633743931 424.07628480885035 912.104633743931 420.4736502514205L912.104633743931 420.4736502514205ZM918.5279356680306 339.8193200044648L918.5279356680306 339.8193200044648Q916.3216710941008 340.2382309995148 912.411835140301 338.53465961964497Q908.4740717868312 336.803160840105 906.0723154152114 334.01042087310515L906.0723154152114 334.01042087310515Q904.4525262343515 332.19513989455527 904.5642358330314 329.6816739242554Q904.6759454317115 327.1682079539556 905.7651140188414 324.85023378134565Q906.8822100056412 322.5322596087358 908.7812731832013 320.94039782754584Q910.7082637604311 319.32060864668597 912.914528334361 319.32060864668597L912.914528334361 319.32060864668597Q915.3162847059808 319.32060864668597 917.8297506762807 320.0187936384359Q920.3432166465806 320.7169786301859 922.4656990215004 322.0295664146758Q924.5602539967504 323.34215419916575 925.9845513799203 324.9619433800257Q927.3809213634203 326.55380516121556 927.3809213634203 328.36908613976544L927.3809213634203 328.36908613976544Q927.3809213634203 331.77622889950527 924.7836731941103 335.60228265429504Q922.1584976251305 339.4283364090849 918.5279356680306 339.8193200044648ZM1010.8279915773757 361.74232874541366L1010.8279915773757 361.74232874541366Q1012.8387643536156 363.5576097239636 1014.2630617367855 365.87558389657346Q1015.6594317202854 368.1935580691833 1016.2738345130255 370.3998226431132Q1016.8603099060954 372.60608721704307 1016.5531085097255 374.309658596913Q1016.2738345130255 376.0132299767829 1015.0450289275456 376.6276327695229L1015.0450289275456 376.6276327695229Q1013.4531671463557 377.4375273599528 1010.3252983833157 375.5105367827229Q1007.2253570199459 373.61147360516304 1003.9857786582262 371.9916844243031L1003.9857786582262 371.9916844243031Q1001.9750058819862 370.9862980361832 997.4507671354464 369.58992805268326Q992.9265283889067 368.1935580691833 987.5086128529271 368.5845416645633L987.5086128529271 368.5845416645633Q976.6448543812975 369.58992805268326 971.0314470476279 379.1410987398228Q965.3901123142881 388.69226942696224 965.7810959096681 403.15866245602143L965.7810959096681 403.15866245602143Q966.0045151070282 409.6098917797911 967.5963768882181 415.5305005098308Q969.216166069078 421.4790366395405 972.3161074324479 426.08705758509024Q975.4439761954876 430.72300593030997 980.1637067397174 433.43196369829985Q984.883437283947 436.1409214662897 991.3346666077168 435.9454296685997L991.3346666077168 435.9454296685997Q998.7633549199364 435.7499378709097 1004.488471852286 433.73916509466983Q1010.2415161843057 431.72839231842994 1014.6540453321655 428.9077249517601L1014.6540453321655 428.9077249517601Q1016.0504153156654 428.0978303613301 1017.7819140952054 427.0924439732102Q1019.4854854750753 426.08705758509024 1020.9935650572552 425.3888725933403Q1022.5016446394351 424.6906876015903 1023.590813226565 424.4951958039003Q1024.707909213365 424.2717766065403 1025.3223120061048 424.88617939928025L1025.3223120061048 424.88617939928025Q1025.9087873991748 425.8915657874002 1025.5178038037948 427.51135496826015Q1025.098892808745 429.10321674945004 1024.205216019305 430.918497728Q1023.311539229865 432.73377870654986 1022.082733644385 434.3256404877398Q1020.8818554585752 435.9454296685997 1019.8764690704553 437.1463078544096L1019.8764690704553 437.1463078544096Q1014.2630617367855 443.1786261831293 1005.996551434466 446.39027714517914Q997.7579685318163 449.62985550689893 988.7094910387369 449.62985550689893L988.7094910387369 449.62985550689893Q978.8511189552274 449.62985550689893 971.0314470476279 445.9992935497991Q963.1838477403583 442.36873159269936 957.6542226056987 436.1409214662897Q952.1245974710389 429.91311133988 949.108438306679 421.4790366395405Q946.0922791423192 413.0170345395309 945.8967873446292 403.57757345107143L945.8967873446292 403.57757345107143Q945.6733681472692 394.33360416030195 948.1868341175691 385.5644006639224Q950.7003000878689 376.82312456721286 955.7272320284686 369.9809116480632Q960.7541639690684 363.1666261285836 967.903578284588 358.8378791797338Q975.0529926001076 354.50913223088406 984.1014700931872 353.8947294381441L984.1014700931872 353.8947294381441Q988.9049828364269 353.50374584276415 993.1499475862666 354.2019308345141Q997.3669849364364 354.9001158262641 1000.6903454971663 356.212703610754Q1003.9857786582262 357.5252913952439 1006.610954227206 359.03337097742383Q1009.2361297961858 360.54145055960373 1010.8279915773757 361.74232874541366ZM1032.5555085206347 403.57757345107143L1032.5555085206347 403.57757345107143Q1032.5555085206347 394.11018496294196 1036.0743608790544 385.4806184649124Q1039.5932132374742 376.82312456721286 1046.0165151615738 370.2043308454232Q1052.4677444853435 363.5576097239636 1061.292802781063 359.6477737701638Q1070.1457884764527 355.710010416694 1080.814055150392 355.710010416694L1080.814055150392 355.710010416694Q1089.6670408457815 355.710010416694 1096.984019559321 359.5360641714838Q1104.3289256725307 363.3621179262736 1109.5513494108204 369.7854198503732Q1114.80170054878 376.2366491741429 1117.70615011446 384.47523207679245Q1120.6105996801398 392.713814979442 1120.6105996801398 401.56680067483154L1120.6105996801398 401.56680067483154Q1120.6105996801398 410.6152781679111 1117.3151665190799 419.5520460623106Q1113.9918059583501 428.5167413563801 1107.9594876296305 435.4427364745397Q1101.927169300911 442.36873159269936 1093.4651672009013 446.6974785415491Q1085.0310925005617 451.0262254903989 1074.7817368216724 451.0262254903989L1074.7817368216724 451.0262254903989Q1065.118856535853 451.0262254903989 1057.2712572285832 447.5073731319791Q1049.4515853209837 443.9885207735593 1043.9219601863238 437.6490010484696Q1038.3923350516643 431.30948132337994 1035.4599580863144 422.5682052266704Q1032.5555085206347 413.8269291299609 1032.5555085206347 403.57757345107143ZM1080.3951441553418 372.9970708124231L1080.3951441553418 372.9970708124231Q1073.7763504335524 372.9970708124231 1068.1350157002125 375.5105367827229Q1062.5216083665428 378.0240027530228 1058.276643616703 382.3527497018726Q1054.0596062665334 386.68149665072235 1051.7416320939237 392.40661358307204Q1049.4515853209837 398.13173051542174 1049.4515853209837 404.3874680415014L1049.4515853209837 404.3874680415014Q1049.4515853209837 409.6098917797911 1051.3506484985435 414.72060591940084Q1053.2497116761033 419.85924745868056 1056.6847818355131 424.07628480885035Q1060.0919245952532 428.2933221590201 1065.0350743368426 430.918497728Q1069.9502966787627 433.5436732969798 1075.7871232097923 433.5436732969798L1075.7871232097923 433.5436732969798Q1081.623949740822 433.5436732969798 1086.9301556781215 430.61129633162994Q1092.2642890150914 427.70684676595016 1096.202052368561 423.0708984207304Q1100.1118883223608 418.4628774751806 1102.4298624949706 412.51434134547094Q1104.7478366675805 406.5937326154313 1104.7478366675805 400.56141428671157L1104.7478366675805 400.56141428671157Q1104.7478366675805 395.7299741438018 1103.0163378880407 390.8985340008921Q1101.3127665081709 386.06709385798234 1098.2128251448012 382.04554830550256Q1095.0849563817615 378.0240027530228 1090.5607176352214 375.5105367827229Q1086.0364788886818 372.9970708124231 1080.3951441553418 372.9970708124231ZM1155.799123264338 372.60608721704307L1155.799123264338 372.9970708124231Q1157.0279288498177 371.20971723354313 1159.3179756227578 369.58992805268326Q1161.6359497953677 367.97013887182334 1164.3449075633575 366.7692606860134Q1167.0817927310172 365.5683825002035 1170.0979518953773 364.8701975084535Q1173.114111059737 364.17201251670355 1175.515867431357 364.17201251670355L1175.515867431357 364.17201251670355Q1191.7975414389662 364.17201251670355 1200.1478339402956 374.81235179097297Q1208.4981264416251 385.4806184649124 1208.4981264416251 407.40362720586126L1208.4981264416251 407.40362720586126Q1208.4981264416251 412.43055914646095 1207.9954332475652 417.65298288475066Q1207.4927400535053 422.8754066230404 1207.3810304548251 428.2933221590201Q1207.2972482558152 433.73916509466983 1207.7999414498752 438.96158883295954Q1208.302634643935 444.18401257124924 1210.313407420175 449.21094451184894L1210.313407420175 449.21094451184894Q1210.8998828132449 450.4118226976589 1211.598067804995 451.9199022798388Q1212.324180196415 453.4279818620188 1212.910655589485 454.93606144419863Q1213.5250583822249 456.4441410263786 1213.5250583822249 457.67294661185855Q1213.5250583822249 458.8738247976684 1212.519671994105 459.6837193880984L1212.519671994105 459.6837193880984Q1211.7097774036752 460.2701947811684 1210.089988222815 460.1864125821584Q1208.4981264416251 460.0747029834784 1206.6828454630752 459.5720097894184Q1204.8675644845252 459.06931659535843 1203.1639931046554 458.4549138026185Q1201.4604217247854 457.8684384095485 1200.6505271343556 457.25403561680855L1200.6505271343556 457.25403561680855Q1197.019965177256 454.85227924518864 1194.9254102020059 450.4118226976589Q1192.802927827086 445.9992935497991 1191.7975414389662 440.46966841513944Q1190.792155050846 434.94004328047976 1190.596663253156 429.01943455044005Q1190.401171455466 423.0708984207304 1190.401171455466 417.65298288475066L1190.401171455466 417.65298288475066Q1190.401171455466 411.42517275834103 1189.786768662726 405.4766366286313Q1189.200293269656 399.55602789859165 1187.3850122911062 394.8362973543619Q1185.5697313125563 390.0886394104621 1182.2463707518264 386.9886980470923Q1178.9230101910966 383.8608292840525 1173.7005864528069 383.2743538909825L1173.7005864528069 383.2743538909825Q1169.874532698017 382.8554428959325 1164.9593103560974 383.7770470850425Q1160.0440880141778 384.67072387448246 1156.413526057078 388.88776122465225L1156.413526057078 388.88776122465225Q1156.413526057078 399.7515196962816 1156.2180342593879 410.69906036692106Q1156.0225424616979 421.67452843723044 1155.603631466648 433.1247623019298L1155.603631466648 433.1247623019298Q1155.408139668958 438.96158883295954 1154.0117696854581 443.87681117487926Q1152.587472302288 448.81996091646903 1150.4929173270382 452.5343050725788Q1148.3704349521183 456.24864922868863 1145.8569689818185 458.3711316036085Q1143.3435030115186 460.46568657885837 1140.7183274425388 460.46568657885837L1140.7183274425388 460.46568657885837Q1139.126465661349 460.46568657885837 1138.7075546662988 456.4441410263786Q1138.3165710709188 452.42259547389875 1138.4282806695987 447.1163895365991Q1138.5120628686088 441.7822561996294 1138.8192642649788 436.33641326397964Q1139.126465661349 430.918497728 1139.126465661349 427.9023385636401L1139.126465661349 427.9023385636401Q1139.126465661349 415.8377019062008 1139.4336670577188 402.6559692619615Q1139.712941054419 389.5021640173922 1138.7075546662988 374.421368195593L1138.7075546662988 374.421368195593Q1135.9148146992989 372.60608721704307 1133.5968405266892 369.9809116480632Q1131.2788663540791 367.38366347875336 1130.4689717636493 363.94859331934356L1130.4689717636493 363.94859331934356Q1130.2734799659593 363.1666261285836 1130.2734799659593 361.8540383440937Q1130.2734799659593 360.54145055960373 1130.4689717636493 359.3405723737938Q1130.6644635613393 358.1396941879839 1131.1671567553992 357.21808999887395Q1131.6698499494591 356.324413209434 1132.675236337579 356.324413209434L1132.675236337579 356.324413209434Q1133.680622725699 356.324413209434 1135.104920108869 356.71539680481396Q1136.501290092369 357.1343077998639 1137.7021682781788 357.5252913952439L1137.7021682781788 357.5252913952439Q1139.126465661349 358.1396941879839 1141.1372384375886 358.9216613787438Q1143.1480112138286 359.73155596917377 1145.1587839900685 360.65316015828375Q1147.1695567663082 361.5468369477237 1149.0686199438683 362.5522233358436Q1150.9956105210981 363.5576097239636 1152.196488706908 364.36750431439356L1152.196488706908 364.36750431439356Q1154.0117696854581 365.76387429789344 1154.9054464748979 367.69086487512334Q1155.799123264338 369.58992805268326 1155.799123264338 372.60608721704307L1155.799123264338 372.60608721704307ZM1242.8767554353935 437.95620244483956L1242.8767554353935 437.95620244483956Q1256.3377620763326 437.95620244483956 1256.3377620763326 446.61369634253913L1256.3377620763326 446.61369634253913Q1256.3377620763326 452.22710367620886 1255.3323756882128 456.55585062505855Q1254.3269893000925 460.88459757390837 1250.305443747613 462.47645935509826L1250.305443747613 462.47645935509826Q1249.3000573594932 462.8953703501482 1247.289284583253 463.39806354420824Q1245.2785118070133 463.90075673826817 1243.0722472330835 464.2079581346382Q1240.8659826591534 464.4872321313382 1238.9669194815933 464.5989417300181Q1237.0399289043635 464.71065132869813 1236.4534535112934 464.2917403336482L1236.4534535112934 464.2917403336482Q1233.6327861446239 462.47645935509826 1232.1247065624439 459.46030019073845Q1230.6166269802638 456.4441410263786 1230.6166269802638 453.65140105937877L1230.6166269802638 453.65140105937877Q1230.6166269802638 447.0046799379191 1232.9346011528737 442.4804411913793Q1235.2246479258138 437.95620244483956 1242.8767554353935 437.95620244483956ZM1285.9128783268611 420.4736502514205L1285.9128783268611 368.9755252599433Q1285.9128783268611 367.7746470741334 1285.605676930491 367.46744567776335Q1285.2984755341208 367.18817168106335 1284.9074919387413 366.9647524837034L1284.9074919387413 366.9647524837034Q1282.896719162501 366.37827709063345 1280.0760517958315 365.68009209888345Q1277.2553844291615 364.9539797074635 1275.8590144456616 364.36750431439356L1275.8590144456616 364.36750431439356Q1273.8482416694214 363.3621179262736 1272.4239442862518 361.4351273490437Q1271.0275743027519 359.5360641714838 1271.0275743027519 357.5252913952439L1271.0275743027519 357.5252913952439Q1271.0275743027519 356.128921411744 1273.2338388766816 355.01182542494405Q1275.4401034506118 353.8947294381441 1276.8644008337815 353.50374584276415L1276.8644008337815 353.50374584276415Q1281.8913327743812 351.8839566619042 1286.1083701245511 351.10198947114424Q1290.3254074747206 350.2920948807143 1295.1568476176303 350.4875866784043L1295.1568476176303 350.4875866784043Q1297.5586039892505 350.4875866784043 1299.0666835714305 351.49297306652426Q1300.57476315361 352.4983594546442 1301.30087554503 353.8109472391341Q1301.9990605367802 355.123535023624 1302.3062619331504 356.408195408444Q1302.5855359298503 357.7207831929339 1302.5855359298503 358.53067778336384L1302.5855359298503 358.53067778336384L1302.5855359298503 420.2502310540605Q1302.5855359298503 425.08167119697026 1301.5801495417304 430.80678812931995Q1300.57476315361 436.5598324613396 1299.0666835714305 441.4750548032594Q1297.5586039892505 446.39027714517914 1295.4640490140005 449.62985550689893Q1293.3415666390806 452.8415064689488 1291.330793862841 452.8415064689488L1291.330793862841 452.8415064689488Q1289.5155128842907 452.8415064689488 1288.5101264961709 449.12716231283895Q1287.504740108051 445.38489075705917 1286.918264714981 440.16246701876946Q1286.3038619222411 434.94004328047976 1286.1083701245511 429.52212774450004Q1285.9128783268611 424.07628480885035 1285.9128783268611 420.4736502514205L1285.9128783268611 420.4736502514205ZM1292.3361802509608 339.8193200044648L1292.3361802509608 339.8193200044648Q1290.129915677031 340.2382309995148 1286.2200797232308 338.53465961964497Q1282.2823163697612 336.803160840105 1279.8805599981415 334.01042087310515L1279.8805599981415 334.01042087310515Q1278.2607708172814 332.19513989455527 1278.3724804159615 329.6816739242554Q1278.4562626149714 327.1682079539556 1279.5733586017714 324.85023378134565Q1280.6904545885714 322.5322596087358 1282.5895177661314 320.94039782754584Q1284.488580943691 319.32060864668597 1286.722772917291 319.32060864668597L1286.722772917291 319.32060864668597Q1289.1245292889107 319.32060864668597 1291.6379952592106 320.0187936384359Q1294.1514612295105 320.7169786301859 1296.2739436044303 322.0295664146758Q1298.3684985796804 323.34215419916575 1299.7927959628505 324.9619433800257Q1301.18916594635 326.55380516121556 1301.18916594635 328.36908613976544L1301.18916594635 328.36908613976544Q1301.18916594635 331.77622889950527 1298.5639903773704 335.60228265429504Q1295.9667422080606 339.4283364090849 1292.3361802509608 339.8193200044648ZM1317.0798563585795 403.57757345107143L1317.0798563585795 403.57757345107143Q1317.0798563585795 394.11018496294196 1320.5987087169992 385.4806184649124Q1324.117561075419 376.82312456721286 1330.5408629995186 370.2043308454232Q1336.9920923232885 363.5576097239636 1345.8171506190079 359.6477737701638Q1354.6701363143975 355.710010416694 1365.3384029883368 355.710010416694L1365.3384029883368 355.710010416694Q1374.1913886837265 355.710010416694 1381.5083673972658 359.5360641714838Q1388.8532735104754 363.3621179262736 1394.0756972487652 369.7854198503732Q1399.3260483867248 376.2366491741429 1402.2304979524047 384.47523207679245Q1405.1349475180846 392.713814979442 1405.1349475180846 401.56680067483154L1405.1349475180846 401.56680067483154Q1405.1349475180846 410.6152781679111 1401.8395143570247 419.5520460623106Q1398.516153796295 428.5167413563801 1392.4838354675753 435.4427364745397Q1386.4515171388557 442.36873159269936 1377.989515038846 446.6974785415491Q1369.5554403385063 451.0262254903989 1359.3060846596172 451.0262254903989L1359.3060846596172 451.0262254903989Q1349.6432043737977 451.0262254903989 1341.795605066528 447.5073731319791Q1333.9759331589285 443.9885207735593 1328.4463080242685 437.6490010484696Q1322.916682889609 431.30948132337994 1319.9843059242594 422.5682052266704Q1317.0798563585795 413.8269291299609 1317.0798563585795 403.57757345107143ZM1364.919491993287 372.9970708124231L1364.919491993287 372.9970708124231Q1358.3006982714974 372.9970708124231 1352.6593635381573 375.5105367827229Q1347.0459562044875 378.0240027530228 1342.8009914546478 382.3527497018726Q1338.5839541044784 386.68149665072235 1336.2659799318685 392.40661358307204Q1333.9759331589285 398.13173051542174 1333.9759331589285 404.3874680415014L1333.9759331589285 404.3874680415014Q1333.9759331589285 409.6098917797911 1335.874996336488 414.72060591940084Q1337.774059514048 419.85924745868056 1341.209129673458 424.07628480885035Q1344.616272433198 428.2933221590201 1349.5594221747874 430.918497728Q1354.4746445167075 433.5436732969798 1360.311471047737 433.5436732969798L1360.311471047737 433.5436732969798Q1366.1482975787667 433.5436732969798 1371.4545035160663 430.61129633162994Q1376.7886368530362 427.70684676595016 1380.7264002065058 423.0708984207304Q1384.6362361603055 418.4628774751806 1386.9542103329154 412.51434134547094Q1389.2721845055253 406.5937326154313 1389.2721845055253 400.56141428671157L1389.2721845055253 400.56141428671157Q1389.2721845055253 395.7299741438018 1387.5406857259854 390.8985340008921Q1385.8371143461159 386.06709385798234 1382.737172982746 382.04554830550256Q1379.6093042197058 378.0240027530228 1375.0850654731662 375.5105367827229Q1370.5608267266266 372.9970708124231 1364.919491993287 372.9970708124231Z " fill="#8000ff" transform="matrix(0.6227160114314684,0,0,0.6227160114314685,0,57.375865954134525)"/></g></svg>